<svg id="svg" version="1.1" xmlns="http://www.w3.org/2000/svg" xmlns:xlink="http://www.w3.org/1999/xlink" width="400" height="451.9774011299435" viewBox="0, 0, 400,451.9774011299435"><g id="svgg"><path id="path0" d="M13.200 192.000 C 13.200 192.220,12.750 192.400,12.200 192.400 C 11.650 192.400,11.200 192.559,11.200 192.754 C 11.200 192.949,10.569 193.408,9.799 193.774 C 6.581 195.301,6.400 195.750,6.400 202.218 C 6.400 205.806,6.552 208.000,6.800 208.000 C 7.020 208.000,7.200 208.810,7.200 209.800 C 7.200 210.790,7.380 211.600,7.600 211.600 C 7.820 211.600,8.000 212.219,8.000 212.976 C 8.000 213.733,8.180 214.464,8.400 214.600 C 8.620 214.736,8.800 215.377,8.800 216.024 C 8.800 216.671,8.955 217.200,9.145 217.200 C 9.334 217.200,9.680 218.235,9.912 219.500 C 10.144 220.765,10.547 222.520,10.808 223.400 C 11.068 224.280,11.372 225.676,11.483 226.503 C 11.594 227.329,11.845 228.105,12.042 228.226 C 12.239 228.348,12.400 228.876,12.400 229.400 C 12.400 229.924,12.580 230.464,12.800 230.600 C 13.020 230.736,13.200 231.467,13.200 232.224 C 13.200 232.981,13.380 233.600,13.600 233.600 C 13.820 233.600,14.000 234.140,14.000 234.800 C 14.000 235.460,14.180 236.000,14.400 236.000 C 14.620 236.000,14.800 236.439,14.800 236.976 C 14.800 237.513,14.980 238.064,15.200 238.200 C 15.420 238.336,15.600 239.247,15.600 240.224 C 15.600 241.201,15.757 242.000,15.948 242.000 C 16.140 242.000,16.418 243.075,16.567 244.388 C 16.715 245.701,17.009 246.882,17.218 247.011 C 17.428 247.141,17.600 247.777,17.600 248.424 C 17.600 249.071,17.780 249.600,18.000 249.600 C 18.220 249.600,18.400 250.129,18.400 250.776 C 18.400 251.423,18.580 252.064,18.800 252.200 C 19.020 252.336,19.200 253.146,19.200 254.000 C 19.200 254.854,19.380 255.664,19.600 255.800 C 19.820 255.936,20.000 256.577,20.000 257.224 C 20.000 257.871,20.180 258.400,20.400 258.400 C 20.620 258.400,20.800 258.940,20.800 259.600 C 20.800 260.260,20.980 260.800,21.200 260.800 C 21.420 260.800,21.600 261.430,21.600 262.200 C 21.600 262.970,21.757 263.600,21.948 263.600 C 22.140 263.600,22.439 264.545,22.612 265.700 C 22.786 266.855,22.962 267.890,23.003 268.000 C 23.044 268.110,23.219 268.969,23.392 269.909 C 23.564 270.849,23.861 271.714,24.053 271.832 C 24.244 271.951,24.400 272.566,24.400 273.200 C 24.400 273.834,24.580 274.464,24.800 274.600 C 25.020 274.736,25.200 275.377,25.200 276.024 C 25.200 276.671,25.380 277.200,25.600 277.200 C 25.820 277.200,26.000 277.729,26.000 278.376 C 26.000 279.023,26.180 279.664,26.400 279.800 C 26.620 279.936,26.800 280.656,26.800 281.400 C 26.800 282.144,26.980 282.864,27.200 283.000 C 27.420 283.136,27.600 283.867,27.600 284.624 C 27.600 285.381,27.780 286.000,28.000 286.000 C 28.220 286.000,28.400 286.529,28.400 287.176 C 28.400 287.823,28.556 288.449,28.747 288.567 C 28.938 288.685,29.211 289.641,29.354 290.691 C 29.606 292.549,30.324 294.962,30.883 295.829 C 31.035 296.065,31.204 297.021,31.259 297.954 C 31.314 298.888,31.504 299.740,31.680 299.849 C 31.856 299.958,32.000 300.487,32.000 301.024 C 32.000 301.561,32.180 302.000,32.400 302.000 C 32.620 302.000,32.800 302.619,32.800 303.376 C 32.800 304.133,32.980 304.864,33.200 305.000 C 33.420 305.136,33.600 305.777,33.600 306.424 C 33.600 307.071,33.780 307.600,34.000 307.600 C 34.220 307.600,34.400 308.050,34.400 308.600 C 34.400 309.150,34.563 309.600,34.761 309.600 C 34.960 309.600,35.222 310.545,35.343 311.700 C 35.464 312.855,35.631 314.070,35.715 314.400 C 35.798 314.730,36.010 315.769,36.186 316.709 C 36.361 317.649,36.661 318.514,36.853 318.632 C 37.044 318.751,37.200 319.276,37.200 319.800 C 37.200 320.324,37.380 320.864,37.600 321.000 C 37.820 321.136,38.000 321.867,38.000 322.624 C 38.000 323.381,38.180 324.000,38.400 324.000 C 38.620 324.000,38.800 324.630,38.800 325.400 C 38.800 326.170,38.980 326.800,39.200 326.800 C 39.420 326.800,39.600 327.520,39.600 328.400 C 39.600 329.280,39.780 330.000,40.000 330.000 C 40.220 330.000,40.400 330.540,40.400 331.200 C 40.400 331.860,40.580 332.400,40.800 332.400 C 41.020 332.400,41.200 333.030,41.200 333.800 C 41.200 334.570,41.339 335.200,41.508 335.200 C 41.817 335.200,42.707 338.873,43.084 341.703 C 43.194 342.529,43.445 343.305,43.642 343.426 C 43.839 343.548,44.000 344.166,44.000 344.800 C 44.000 345.434,44.180 346.064,44.400 346.200 C 44.620 346.336,44.800 346.977,44.800 347.624 C 44.800 348.271,44.980 348.800,45.200 348.800 C 45.420 348.800,45.600 349.329,45.600 349.976 C 45.600 350.623,45.780 351.264,46.000 351.400 C 46.220 351.536,46.400 352.177,46.400 352.824 C 46.400 353.471,46.580 354.000,46.800 354.000 C 47.020 354.000,47.200 354.810,47.200 355.800 C 47.200 356.790,47.380 357.600,47.600 357.600 C 47.820 357.600,48.000 358.110,48.000 358.733 C 48.000 359.357,48.133 359.999,48.295 360.162 C 48.457 360.324,48.605 360.669,48.623 360.928 C 48.722 362.336,49.352 364.847,49.653 365.032 C 49.844 365.151,50.000 365.777,50.000 366.424 C 50.000 367.071,50.180 367.600,50.400 367.600 C 50.620 367.600,50.800 368.309,50.800 369.176 C 50.800 370.043,50.980 370.864,51.200 371.000 C 51.420 371.136,51.600 371.777,51.600 372.424 C 51.600 373.071,51.780 373.600,52.000 373.600 C 52.220 373.600,52.400 374.230,52.400 375.000 C 52.400 375.770,52.580 376.400,52.800 376.400 C 53.020 376.400,53.200 376.940,53.200 377.600 C 53.200 378.260,53.380 378.800,53.600 378.800 C 53.820 378.800,54.000 379.340,54.000 380.000 C 54.000 380.660,54.158 381.200,54.350 381.200 C 54.543 381.200,54.797 382.145,54.914 383.300 C 55.129 385.420,55.242 385.964,55.942 388.270 C 56.153 388.968,56.223 389.643,56.097 389.770 C 55.970 389.896,56.077 390.000,56.333 390.000 C 56.590 390.000,56.800 390.540,56.800 391.200 C 56.800 391.860,56.980 392.400,57.200 392.400 C 57.420 392.400,57.600 393.019,57.600 393.776 C 57.600 394.533,57.780 395.264,58.000 395.400 C 58.220 395.536,58.400 396.166,58.400 396.800 C 58.400 397.434,58.560 398.052,58.756 398.173 C 58.951 398.294,59.213 398.979,59.337 399.696 C 59.847 402.651,60.107 403.600,60.405 403.600 C 60.578 403.600,60.811 404.365,60.923 405.300 C 61.179 407.440,62.105 411.038,62.500 411.434 C 62.665 411.598,62.800 412.336,62.800 413.072 C 62.800 413.808,62.958 414.723,63.151 415.105 C 63.740 416.272,64.400 418.608,64.400 419.528 C 64.400 420.008,64.580 420.400,64.800 420.400 C 65.020 420.400,65.200 420.929,65.200 421.576 C 65.200 422.223,65.380 422.864,65.600 423.000 C 65.820 423.136,66.000 423.777,66.000 424.424 C 66.000 425.071,66.180 425.600,66.400 425.600 C 66.620 425.600,66.800 426.230,66.800 427.000 C 66.800 427.770,66.980 428.400,67.200 428.400 C 67.420 428.400,67.600 429.009,67.600 429.754 C 67.600 431.005,68.379 434.124,69.240 436.319 C 69.438 436.824,69.600 437.679,69.600 438.219 C 69.600 438.758,69.780 439.200,70.000 439.200 C 70.220 439.200,70.400 439.682,70.400 440.272 C 70.400 441.396,70.943 443.313,71.881 445.501 C 72.638 447.267,75.050 449.597,77.366 450.800 C 78.945 451.620,139.228 451.717,139.500 450.900 C 139.592 450.625,140.068 450.400,140.558 450.400 C 141.048 450.400,141.836 450.040,142.308 449.600 C 142.780 449.160,143.309 448.797,143.483 448.794 C 144.006 448.783,146.400 446.529,146.400 446.047 C 146.400 445.801,146.580 445.600,146.800 445.600 C 147.020 445.600,147.200 445.150,147.200 444.600 C 147.200 444.050,147.380 443.600,147.600 443.600 C 147.820 443.600,148.000 443.060,148.000 442.400 C 148.000 441.740,148.180 441.200,148.400 441.200 C 148.620 441.200,148.800 440.671,148.800 440.024 C 148.800 439.377,148.980 438.736,149.200 438.600 C 149.420 438.464,149.600 437.823,149.600 437.176 C 149.600 436.529,149.760 436.000,149.956 436.000 C 150.152 436.000,150.406 435.415,150.521 434.700 C 151.312 429.773,151.786 427.600,152.071 427.600 C 152.252 427.600,152.400 426.970,152.400 426.200 C 152.400 425.430,152.580 424.800,152.800 424.800 C 153.020 424.800,153.200 424.271,153.200 423.624 C 153.200 422.977,153.380 422.336,153.600 422.200 C 153.820 422.064,154.000 421.434,154.000 420.800 C 154.000 420.166,154.180 419.536,154.400 419.400 C 154.620 419.264,154.800 418.454,154.800 417.600 C 154.800 416.746,154.980 415.936,155.200 415.800 C 155.420 415.664,155.600 415.124,155.600 414.600 C 155.600 414.076,155.780 413.536,156.000 413.400 C 156.220 413.264,156.400 412.548,156.400 411.810 C 156.400 411.071,156.535 410.407,156.700 410.333 C 157.094 410.159,158.400 405.165,158.400 403.834 C 158.400 403.265,158.580 402.800,158.800 402.800 C 159.020 402.800,159.200 401.990,159.200 401.000 C 159.200 400.010,159.380 399.200,159.600 399.200 C 159.820 399.200,160.000 398.660,160.000 398.000 C 160.000 397.340,160.180 396.800,160.400 396.800 C 160.620 396.800,160.800 396.170,160.800 395.400 C 160.800 394.630,160.980 394.000,161.200 394.000 C 161.420 394.000,161.600 393.471,161.600 392.824 C 161.600 392.177,161.780 391.536,162.000 391.400 C 162.220 391.264,162.400 390.634,162.400 390.000 C 162.400 389.366,162.580 388.736,162.800 388.600 C 163.020 388.464,163.200 387.553,163.200 386.576 C 163.200 385.599,163.367 384.800,163.571 384.800 C 163.775 384.800,164.066 383.808,164.218 382.595 C 164.370 381.382,164.652 380.291,164.847 380.171 C 165.041 380.051,165.200 379.434,165.200 378.800 C 165.200 378.166,165.380 377.536,165.600 377.400 C 165.820 377.264,166.000 376.623,166.000 375.976 C 166.000 375.329,166.180 374.800,166.400 374.800 C 166.620 374.800,166.800 373.990,166.800 373.000 C 166.800 372.010,166.980 371.200,167.200 371.200 C 167.420 371.200,167.600 370.570,167.600 369.800 C 167.600 369.030,167.780 368.400,168.000 368.400 C 168.220 368.400,168.400 367.860,168.400 367.200 C 168.400 366.540,168.580 366.000,168.800 366.000 C 169.020 366.000,169.200 365.548,169.200 364.995 C 169.200 364.442,169.359 363.677,169.553 363.295 C 170.017 362.381,170.680 359.498,171.026 356.891 C 171.178 355.741,171.460 354.800,171.652 354.800 C 171.843 354.800,172.000 354.170,172.000 353.400 C 172.000 352.630,172.180 352.000,172.400 352.000 C 172.620 352.000,172.800 351.471,172.800 350.824 C 172.800 350.177,172.980 349.536,173.200 349.400 C 173.420 349.264,173.600 348.533,173.600 347.776 C 173.600 347.019,173.780 346.400,174.000 346.400 C 174.220 346.400,174.400 345.871,174.400 345.224 C 174.400 344.577,174.580 343.936,174.800 343.800 C 175.020 343.664,175.200 342.843,175.200 341.976 C 175.200 341.109,175.380 340.400,175.600 340.400 C 175.820 340.400,176.000 339.871,176.000 339.224 C 176.000 338.577,176.180 337.936,176.400 337.800 C 176.620 337.664,176.803 337.158,176.806 336.676 C 176.809 336.194,177.071 335.080,177.388 334.200 C 177.705 333.320,177.973 332.015,177.982 331.300 C 177.992 330.585,178.180 330.000,178.400 330.000 C 178.620 330.000,178.800 329.190,178.800 328.200 C 178.800 327.210,178.980 326.400,179.200 326.400 C 179.420 326.400,179.600 325.860,179.600 325.200 C 179.600 324.540,179.780 324.000,180.000 324.000 C 180.220 324.000,180.400 323.381,180.400 322.624 C 180.400 321.867,180.580 321.136,180.800 321.000 C 181.020 320.864,181.200 320.324,181.200 319.800 C 181.200 319.276,181.380 318.736,181.600 318.600 C 181.820 318.464,182.000 317.744,182.000 317.000 C 182.000 316.256,182.180 315.536,182.400 315.400 C 182.620 315.264,182.800 314.544,182.800 313.800 C 182.800 313.056,182.962 312.347,183.161 312.224 C 183.359 312.102,183.647 310.921,183.800 309.601 C 183.953 308.280,184.241 307.200,184.439 307.200 C 184.638 307.200,184.800 306.570,184.800 305.800 C 184.800 305.030,184.980 304.400,185.200 304.400 C 185.420 304.400,185.600 303.871,185.600 303.224 C 185.600 302.577,185.780 301.936,186.000 301.800 C 186.220 301.664,186.400 300.843,186.400 299.976 C 186.400 299.109,186.580 298.400,186.800 298.400 C 187.020 298.400,187.200 297.871,187.200 297.224 C 187.200 296.577,187.380 295.936,187.600 295.800 C 187.820 295.664,188.000 295.034,188.000 294.400 C 188.000 293.766,188.180 293.136,188.400 293.000 C 188.620 292.864,188.800 292.311,188.800 291.771 C 188.800 291.231,188.972 290.477,189.182 290.095 C 189.741 289.076,190.800 284.352,190.800 282.874 C 190.800 282.173,190.980 281.600,191.200 281.600 C 191.420 281.600,191.600 280.970,191.600 280.200 C 191.600 279.430,191.780 278.800,192.000 278.800 C 192.220 278.800,192.400 278.260,192.400 277.600 C 192.400 276.940,192.580 276.400,192.800 276.400 C 193.020 276.400,193.200 275.781,193.200 275.024 C 193.200 274.267,193.380 273.536,193.600 273.400 C 193.820 273.264,194.000 272.353,194.000 271.376 C 194.000 270.399,194.180 269.600,194.400 269.600 C 194.620 269.600,194.800 268.610,194.800 267.400 C 194.800 266.190,194.980 265.200,195.200 265.200 C 195.420 265.200,195.600 264.401,195.600 263.424 C 195.600 262.447,195.764 261.546,195.964 261.422 C 196.165 261.298,196.456 259.668,196.612 257.799 C 196.767 255.929,197.053 254.400,197.247 254.400 C 197.441 254.400,197.600 253.410,197.600 252.200 C 197.600 250.990,197.780 250.000,198.000 250.000 C 198.231 250.000,198.400 248.733,198.400 247.000 C 198.400 245.267,198.569 244.000,198.800 244.000 C 199.020 244.000,199.200 243.010,199.200 241.800 C 199.200 240.590,199.380 239.600,199.600 239.600 C 199.826 239.600,200.000 238.467,200.000 237.000 C 200.000 235.533,200.174 234.400,200.400 234.400 C 200.620 234.400,200.800 234.760,200.800 235.200 C 200.800 235.640,200.980 236.000,201.200 236.000 C 201.437 236.000,201.600 237.467,201.600 239.600 C 201.600 241.733,201.763 243.200,202.000 243.200 C 202.226 243.200,202.400 244.333,202.400 245.800 C 202.400 247.230,202.549 248.400,202.731 248.400 C 202.913 248.400,203.276 250.245,203.537 252.500 C 204.335 259.382,204.464 260.186,204.839 260.580 C 205.037 260.789,205.200 261.813,205.200 262.856 C 205.200 263.899,205.380 264.864,205.600 265.000 C 205.820 265.136,206.000 266.047,206.000 267.024 C 206.000 268.001,206.180 268.800,206.400 268.800 C 206.620 268.800,206.800 269.520,206.800 270.400 C 206.800 271.280,206.980 272.000,207.200 272.000 C 207.420 272.000,207.600 272.720,207.600 273.600 C 207.600 274.480,207.780 275.200,208.000 275.200 C 208.220 275.200,208.400 275.830,208.400 276.600 C 208.400 277.370,208.580 278.000,208.800 278.000 C 209.020 278.000,209.200 278.585,209.199 279.300 C 209.198 280.806,210.286 285.874,210.830 286.895 C 211.033 287.277,211.200 288.031,211.200 288.571 C 211.200 289.111,211.380 289.664,211.600 289.800 C 211.820 289.936,212.000 290.577,212.000 291.224 C 212.000 291.871,212.180 292.400,212.400 292.400 C 212.620 292.400,212.800 293.030,212.800 293.800 C 212.800 294.570,212.980 295.200,213.200 295.200 C 213.420 295.200,213.600 295.909,213.600 296.776 C 213.600 297.643,213.780 298.464,214.000 298.600 C 214.220 298.736,214.400 299.377,214.400 300.024 C 214.400 300.671,214.580 301.200,214.800 301.200 C 215.020 301.200,215.200 301.819,215.200 302.576 C 215.200 303.333,215.359 304.051,215.553 304.171 C 215.748 304.291,216.030 305.382,216.182 306.595 C 216.334 307.808,216.606 308.800,216.789 308.800 C 216.971 308.800,217.208 309.565,217.316 310.500 C 217.424 311.435,217.728 312.920,217.993 313.800 C 218.258 314.680,218.567 315.985,218.681 316.700 C 218.795 317.415,219.048 318.000,219.244 318.000 C 219.440 318.000,219.600 318.529,219.600 319.176 C 219.600 319.823,219.780 320.464,220.000 320.600 C 220.220 320.736,220.400 321.377,220.400 322.024 C 220.400 322.671,220.580 323.200,220.800 323.200 C 221.020 323.200,221.200 323.909,221.200 324.776 C 221.200 325.643,221.380 326.464,221.600 326.600 C 221.820 326.736,222.000 327.377,222.000 328.024 C 222.000 328.671,222.159 329.200,222.353 329.200 C 222.548 329.200,222.832 330.370,222.985 331.800 C 223.138 333.230,223.410 334.400,223.588 334.400 C 223.766 334.400,224.022 335.030,224.156 335.800 C 224.290 336.570,224.510 337.832,224.644 338.604 C 224.779 339.376,225.049 340.106,225.244 340.227 C 225.440 340.348,225.600 341.056,225.600 341.800 C 225.600 342.544,225.780 343.264,226.000 343.400 C 226.220 343.536,226.400 344.166,226.400 344.800 C 226.400 345.434,226.580 346.064,226.800 346.200 C 227.020 346.336,227.200 346.977,227.200 347.624 C 227.200 348.271,227.380 348.800,227.600 348.800 C 227.820 348.800,228.000 349.340,228.000 350.000 C 228.000 350.660,228.144 351.200,228.320 351.200 C 228.497 351.200,228.870 352.595,229.150 354.300 C 229.430 356.005,229.756 357.985,229.873 358.700 C 229.991 359.415,230.248 360.000,230.444 360.000 C 230.640 360.000,230.800 360.540,230.800 361.200 C 230.800 361.860,230.980 362.400,231.200 362.400 C 231.420 362.400,231.600 363.030,231.600 363.800 C 231.600 364.570,231.780 365.200,232.000 365.200 C 232.220 365.200,232.400 365.729,232.400 366.376 C 232.400 367.023,232.580 367.664,232.800 367.800 C 233.020 367.936,233.200 368.757,233.200 369.624 C 233.200 370.491,233.380 371.200,233.600 371.200 C 233.820 371.200,234.000 371.920,234.000 372.800 C 234.000 373.680,234.180 374.400,234.400 374.400 C 234.620 374.400,234.800 374.940,234.800 375.600 C 234.800 376.260,234.955 376.800,235.145 376.800 C 235.335 376.800,235.610 377.823,235.757 379.074 C 235.904 380.324,236.180 381.539,236.371 381.774 C 236.687 382.164,236.852 382.899,237.475 386.700 C 237.592 387.415,237.848 388.000,238.044 388.000 C 238.240 388.000,238.400 388.630,238.400 389.400 C 238.400 390.170,238.580 390.800,238.800 390.800 C 239.020 390.800,239.200 391.340,239.200 392.000 C 239.200 392.660,239.380 393.200,239.600 393.200 C 239.820 393.200,240.000 393.819,240.000 394.576 C 240.000 395.333,240.180 396.064,240.400 396.200 C 240.620 396.336,240.800 397.067,240.800 397.824 C 240.800 398.581,240.980 399.200,241.200 399.200 C 241.420 399.200,241.608 399.785,241.618 400.500 C 241.627 401.215,241.895 402.520,242.212 403.400 C 242.529 404.280,242.791 405.484,242.794 406.076 C 242.797 406.668,242.980 407.264,243.200 407.400 C 243.420 407.536,243.600 408.076,243.600 408.600 C 243.600 409.124,243.780 409.664,244.000 409.800 C 244.220 409.936,244.400 410.566,244.400 411.200 C 244.400 411.834,244.580 412.464,244.800 412.600 C 245.020 412.736,245.200 413.546,245.200 414.400 C 245.200 415.254,245.380 416.064,245.600 416.200 C 245.820 416.336,246.000 416.977,246.000 417.624 C 246.000 418.271,246.180 418.800,246.400 418.800 C 246.620 418.800,246.800 419.340,246.800 420.000 C 246.800 420.660,246.980 421.200,247.200 421.200 C 247.420 421.200,247.600 421.830,247.600 422.600 C 247.600 423.370,247.755 424.000,247.944 424.000 C 248.133 424.000,248.499 425.305,248.758 426.900 C 249.575 431.934,249.680 432.402,250.044 432.627 C 250.240 432.748,250.400 433.377,250.400 434.024 C 250.400 434.671,250.580 435.200,250.800 435.200 C 251.020 435.200,251.200 435.740,251.200 436.400 C 251.200 437.060,251.380 437.600,251.600 437.600 C 251.820 437.600,252.000 438.230,252.000 439.000 C 252.000 439.770,252.180 440.400,252.400 440.400 C 252.620 440.400,252.800 441.120,252.800 442.000 C 252.800 442.880,252.980 443.600,253.200 443.600 C 253.420 443.600,253.600 444.050,253.600 444.600 C 253.600 445.150,253.780 445.600,254.000 445.600 C 254.220 445.600,254.400 445.804,254.400 446.053 C 254.400 446.716,258.252 450.400,258.944 450.400 C 259.268 450.400,259.608 450.625,259.700 450.900 C 259.831 451.294,266.329 451.400,290.400 451.400 C 314.471 451.400,320.969 451.294,321.100 450.900 C 321.192 450.625,321.612 450.400,322.033 450.400 C 322.455 450.400,322.800 450.220,322.800 450.000 C 322.800 449.780,323.064 449.600,323.387 449.600 C 324.198 449.600,328.000 445.849,328.000 445.050 C 328.000 444.692,328.180 444.400,328.400 444.400 C 328.620 444.400,328.800 444.051,328.800 443.624 C 328.800 443.197,328.980 442.736,329.200 442.600 C 329.420 442.464,329.600 441.834,329.600 441.200 C 329.600 440.566,329.780 439.936,330.000 439.800 C 330.220 439.664,330.400 438.933,330.400 438.176 C 330.400 437.419,330.580 436.800,330.800 436.800 C 331.020 436.800,331.200 436.271,331.200 435.624 C 331.200 434.977,331.372 434.341,331.582 434.211 C 331.791 434.082,332.085 432.901,332.233 431.588 C 332.382 430.275,332.660 429.200,332.852 429.200 C 333.043 429.200,333.200 428.390,333.200 427.400 C 333.200 426.410,333.380 425.600,333.600 425.600 C 333.820 425.600,334.000 425.060,334.000 424.400 C 334.000 423.740,334.180 423.200,334.400 423.200 C 334.620 423.200,334.800 422.570,334.800 421.800 C 334.800 421.030,334.980 420.400,335.200 420.400 C 335.420 420.400,335.600 419.860,335.600 419.200 C 335.600 418.540,335.760 418.000,335.956 418.000 C 336.152 418.000,336.412 417.415,336.534 416.700 C 336.738 415.504,337.128 413.672,337.832 410.600 C 337.984 409.940,338.258 409.208,338.442 408.974 C 338.625 408.739,338.897 407.519,339.044 406.262 C 339.192 405.006,339.467 403.882,339.656 403.765 C 339.845 403.648,340.000 403.124,340.000 402.600 C 340.000 402.076,340.180 401.536,340.400 401.400 C 340.620 401.264,340.800 400.544,340.800 399.800 C 340.800 399.056,340.980 398.336,341.200 398.200 C 341.420 398.064,341.600 397.434,341.600 396.800 C 341.600 396.166,341.780 395.536,342.000 395.400 C 342.220 395.264,342.400 394.533,342.400 393.776 C 342.400 393.019,342.580 392.400,342.800 392.400 C 343.020 392.400,343.200 391.860,343.200 391.200 C 343.200 390.540,343.380 390.000,343.600 390.000 C 343.820 390.000,344.000 389.406,344.000 388.680 C 344.000 387.954,344.184 387.176,344.408 386.952 C 344.633 386.727,344.929 385.341,345.066 383.872 C 345.203 382.402,345.470 381.200,345.658 381.200 C 345.846 381.200,346.000 380.660,346.000 380.000 C 346.000 379.340,346.180 378.800,346.400 378.800 C 346.620 378.800,346.800 378.170,346.800 377.400 C 346.800 376.630,346.980 376.000,347.200 376.000 C 347.420 376.000,347.600 375.460,347.600 374.800 C 347.600 374.140,347.780 373.600,348.000 373.600 C 348.220 373.600,348.400 372.981,348.400 372.224 C 348.400 371.467,348.580 370.736,348.800 370.600 C 349.020 370.464,349.200 369.744,349.200 369.000 C 349.200 368.256,349.380 367.536,349.600 367.400 C 349.820 367.264,350.000 366.711,350.000 366.171 C 350.000 365.631,350.158 364.877,350.351 364.495 C 350.923 363.363,351.530 361.131,351.821 359.095 C 351.970 358.047,352.252 357.092,352.446 356.971 C 352.641 356.851,352.800 355.953,352.800 354.976 C 352.800 353.999,352.980 353.200,353.200 353.200 C 353.420 353.200,353.600 352.761,353.600 352.224 C 353.600 351.687,353.780 351.136,354.000 351.000 C 354.220 350.864,354.400 350.133,354.400 349.376 C 354.400 348.619,354.580 348.000,354.800 348.000 C 355.020 348.000,355.200 347.471,355.200 346.824 C 355.200 346.177,355.380 345.536,355.600 345.400 C 355.820 345.264,356.000 344.634,356.000 344.000 C 356.000 343.366,356.161 342.748,356.358 342.626 C 356.555 342.505,356.816 341.729,356.939 340.903 C 357.452 337.454,358.174 334.400,358.476 334.400 C 358.654 334.400,358.800 333.770,358.800 333.000 C 358.800 332.230,358.980 331.600,359.200 331.600 C 359.420 331.600,359.600 331.060,359.600 330.400 C 359.600 329.740,359.780 329.200,360.000 329.200 C 360.220 329.200,360.400 328.480,360.400 327.600 C 360.400 326.720,360.580 326.000,360.800 326.000 C 361.020 326.000,361.200 325.518,361.200 324.928 C 361.200 323.953,361.618 322.318,362.410 320.200 C 362.574 319.760,362.895 318.680,363.123 317.800 C 363.351 316.920,363.822 315.234,364.169 314.054 C 364.516 312.874,364.800 311.209,364.800 310.354 C 364.800 309.499,364.980 308.800,365.200 308.800 C 365.420 308.800,365.600 308.260,365.600 307.600 C 365.600 306.940,365.780 306.400,366.000 306.400 C 366.220 306.400,366.400 305.770,366.400 305.000 C 366.400 304.230,366.580 303.600,366.800 303.600 C 367.020 303.600,367.200 303.060,367.200 302.400 C 367.200 301.740,367.380 301.200,367.600 301.200 C 367.820 301.200,368.000 300.581,368.000 299.824 C 368.000 299.067,368.180 298.336,368.400 298.200 C 368.620 298.064,368.800 297.254,368.800 296.400 C 368.800 295.546,368.980 294.736,369.200 294.600 C 369.420 294.464,369.600 293.924,369.600 293.400 C 369.600 292.876,369.762 292.347,369.961 292.224 C 370.159 292.102,370.447 290.921,370.600 289.601 C 370.753 288.280,371.041 287.200,371.239 287.200 C 371.438 287.200,371.600 286.660,371.600 286.000 C 371.600 285.340,371.780 284.800,372.000 284.800 C 372.220 284.800,372.400 284.091,372.400 283.224 C 372.400 282.357,372.580 281.536,372.800 281.400 C 373.020 281.264,373.200 280.443,373.200 279.576 C 373.200 278.709,373.380 278.000,373.600 278.000 C 373.820 278.000,374.000 277.638,374.000 277.195 C 374.000 276.752,374.158 276.077,374.351 275.695 C 374.889 274.629,375.600 272.223,375.600 271.466 C 375.600 271.094,375.763 270.477,375.963 270.095 C 376.447 269.166,377.084 266.631,377.419 264.295 C 377.569 263.247,377.852 262.292,378.046 262.171 C 378.241 262.051,378.400 261.333,378.400 260.576 C 378.400 259.819,378.580 259.200,378.800 259.200 C 379.020 259.200,379.200 258.660,379.200 258.000 C 379.200 257.340,379.380 256.800,379.600 256.800 C 379.820 256.800,380.000 256.181,380.000 255.424 C 380.000 254.667,380.180 253.936,380.400 253.800 C 380.620 253.664,380.800 252.843,380.800 251.976 C 380.800 251.109,380.980 250.400,381.200 250.400 C 381.420 250.400,381.600 249.860,381.600 249.200 C 381.600 248.540,381.780 248.000,382.000 248.000 C 382.220 248.000,382.400 247.558,382.400 247.019 C 382.400 246.479,382.562 245.624,382.760 245.119 C 383.662 242.819,384.400 239.775,384.400 238.354 C 384.400 237.499,384.580 236.800,384.800 236.800 C 385.020 236.800,385.200 236.271,385.200 235.624 C 385.200 234.977,385.380 234.336,385.600 234.200 C 385.820 234.064,386.000 233.434,386.000 232.800 C 386.000 232.166,386.180 231.536,386.400 231.400 C 386.620 231.264,386.800 230.724,386.800 230.200 C 386.800 229.676,386.980 229.136,387.200 229.000 C 387.420 228.864,387.600 228.133,387.600 227.376 C 387.600 226.619,387.761 226.000,387.958 226.000 C 388.155 226.000,388.415 225.325,388.535 224.500 C 388.939 221.742,389.298 220.204,389.638 219.774 C 389.824 219.539,390.096 218.324,390.243 217.074 C 390.390 215.823,390.665 214.800,390.855 214.800 C 391.045 214.800,391.200 214.260,391.200 213.600 C 391.200 212.940,391.380 212.400,391.600 212.400 C 391.820 212.400,392.000 211.781,392.000 211.024 C 392.000 210.267,392.180 209.536,392.400 209.400 C 392.620 209.264,392.800 208.544,392.800 207.800 C 392.800 207.056,392.980 206.336,393.200 206.200 C 393.732 205.871,393.732 197.600,393.200 197.600 C 392.980 197.600,392.800 197.285,392.800 196.900 C 392.799 196.082,391.115 194.000,390.453 194.000 C 390.204 194.000,390.000 193.820,390.000 193.600 C 390.000 193.380,389.730 193.200,389.400 193.200 C 389.070 193.200,388.800 193.020,388.800 192.800 C 388.800 192.580,388.350 192.400,387.800 192.400 C 387.250 192.400,386.800 192.220,386.800 192.000 C 386.800 191.739,380.000 191.600,367.200 191.600 C 354.400 191.600,347.600 191.739,347.600 192.000 C 347.600 192.220,347.150 192.400,346.600 192.400 C 346.050 192.400,345.600 192.580,345.600 192.800 C 345.600 193.020,345.240 193.200,344.800 193.200 C 344.360 193.200,344.000 193.380,344.000 193.600 C 344.000 193.820,343.748 194.000,343.440 194.000 C 342.618 194.000,340.294 196.464,339.431 198.250 C 339.019 199.103,338.529 200.113,338.341 200.495 C 338.154 200.877,338.000 201.541,338.000 201.971 C 338.000 202.401,337.820 202.864,337.600 203.000 C 337.380 203.136,337.200 203.856,337.200 204.600 C 337.200 205.344,337.020 206.064,336.800 206.200 C 336.580 206.336,336.400 207.236,336.400 208.200 C 336.400 209.164,336.220 210.064,336.000 210.200 C 335.780 210.336,335.600 211.157,335.600 212.024 C 335.600 212.891,335.420 213.600,335.200 213.600 C 334.980 213.600,334.800 214.132,334.800 214.781 C 334.800 215.431,334.636 216.376,334.436 216.881 C 334.125 217.664,333.645 219.693,332.561 224.800 C 332.444 225.350,332.246 226.925,332.120 228.300 C 331.994 229.675,331.735 230.800,331.545 230.800 C 331.355 230.800,331.200 231.430,331.200 232.200 C 331.200 232.970,331.020 233.600,330.800 233.600 C 330.580 233.600,330.400 234.320,330.400 235.200 C 330.400 236.080,330.220 236.800,330.000 236.800 C 329.780 236.800,329.600 237.520,329.600 238.400 C 329.600 239.280,329.439 240.000,329.242 240.000 C 328.897 240.000,328.759 240.655,328.185 245.000 C 328.039 246.100,327.758 247.171,327.560 247.380 C 327.362 247.589,327.200 248.366,327.200 249.106 C 327.200 249.847,327.013 250.802,326.785 251.229 C 326.556 251.655,326.260 253.173,326.127 254.602 C 325.993 256.031,325.730 257.200,325.542 257.200 C 325.354 257.200,325.200 257.819,325.200 258.576 C 325.200 259.333,325.020 260.064,324.800 260.200 C 324.580 260.336,324.400 261.326,324.400 262.400 C 324.400 263.474,324.220 264.464,324.000 264.600 C 323.780 264.736,323.600 265.467,323.600 266.224 C 323.600 266.981,323.420 267.600,323.200 267.600 C 322.980 267.600,322.800 268.320,322.800 269.200 C 322.800 270.080,322.620 270.800,322.400 270.800 C 322.180 270.800,322.000 271.419,322.000 272.176 C 322.000 272.933,321.839 273.652,321.642 273.774 C 321.445 273.895,321.191 274.671,321.077 275.497 C 320.648 278.601,320.345 280.232,320.003 281.286 C 319.810 281.884,319.526 283.639,319.374 285.186 C 319.221 286.734,318.940 288.000,318.748 288.000 C 318.557 288.000,318.400 288.630,318.400 289.400 C 318.400 290.170,318.220 290.800,318.000 290.800 C 317.780 290.800,317.600 291.520,317.600 292.400 C 317.600 293.280,317.420 294.000,317.200 294.000 C 316.980 294.000,316.800 294.709,316.800 295.576 C 316.800 296.443,316.620 297.264,316.400 297.400 C 316.180 297.536,316.000 298.537,316.000 299.624 C 316.000 300.711,315.820 301.600,315.600 301.600 C 315.380 301.600,315.200 302.230,315.200 303.000 C 315.200 303.770,315.040 304.400,314.844 304.400 C 314.648 304.400,314.392 304.985,314.275 305.700 C 314.159 306.415,313.762 308.260,313.395 309.800 C 313.027 311.340,312.636 313.545,312.526 314.700 C 312.416 315.855,312.163 316.800,311.963 316.800 C 311.763 316.800,311.600 317.430,311.600 318.200 C 311.600 318.970,311.420 319.600,311.200 319.600 C 310.980 319.600,310.800 320.320,310.800 321.200 C 310.800 322.080,310.620 322.800,310.400 322.800 C 310.180 322.800,310.000 323.520,310.000 324.400 C 310.000 325.280,309.820 326.000,309.600 326.000 C 309.380 326.000,309.200 326.619,309.200 327.376 C 309.200 328.133,309.054 328.843,308.876 328.953 C 308.698 329.063,308.508 330.004,308.454 331.044 C 308.400 332.084,308.186 333.252,307.978 333.641 C 307.770 334.029,307.600 334.889,307.600 335.550 C 307.600 336.212,307.438 336.853,307.241 336.975 C 307.043 337.097,306.755 338.458,306.600 339.998 C 306.445 341.539,306.157 342.800,305.959 342.800 C 305.762 342.800,305.600 343.509,305.600 344.376 C 305.600 345.243,305.420 346.064,305.200 346.200 C 304.980 346.336,304.800 347.326,304.800 348.400 C 304.800 349.474,304.620 350.464,304.400 350.600 C 304.180 350.736,304.000 351.636,304.000 352.600 C 304.000 353.564,303.820 354.464,303.600 354.600 C 303.380 354.736,303.200 355.557,303.200 356.424 C 303.200 357.291,303.020 358.000,302.800 358.000 C 302.580 358.000,302.400 358.799,302.400 359.776 C 302.400 360.753,302.220 361.664,302.000 361.800 C 301.780 361.936,301.600 362.836,301.600 363.800 C 301.600 364.764,301.446 365.648,301.258 365.764 C 301.070 365.880,300.794 367.016,300.645 368.288 C 300.495 369.559,300.287 371.140,300.183 371.800 C 300.078 372.460,299.878 374.215,299.738 375.700 C 299.598 377.185,299.330 378.400,299.142 378.400 C 298.954 378.400,298.800 379.210,298.800 380.200 C 298.800 381.190,298.620 382.000,298.400 382.000 C 298.180 382.000,298.000 382.979,298.000 384.176 C 298.000 385.373,297.820 386.464,297.600 386.600 C 297.380 386.736,297.200 387.636,297.200 388.600 C 297.200 389.564,297.020 390.464,296.800 390.600 C 296.580 390.736,296.400 392.097,296.400 393.624 C 296.400 395.208,296.228 396.400,296.000 396.400 C 295.780 396.400,295.600 397.390,295.600 398.600 C 295.600 399.810,295.437 400.800,295.237 400.800 C 294.868 400.800,294.783 401.388,293.948 409.700 C 293.688 412.285,293.323 414.400,293.138 414.400 C 292.952 414.400,292.800 415.930,292.800 417.800 C 292.800 419.800,292.635 421.200,292.400 421.200 C 292.180 421.200,292.000 420.491,292.000 419.624 C 292.000 418.757,291.820 417.936,291.600 417.800 C 291.380 417.664,291.200 416.674,291.200 415.600 C 291.200 414.526,291.020 413.536,290.800 413.400 C 290.580 413.264,290.400 412.184,290.400 411.000 C 290.400 409.816,290.220 408.736,290.000 408.600 C 289.780 408.464,289.600 407.013,289.600 405.376 C 289.600 403.659,289.431 402.400,289.200 402.400 C 288.980 402.400,288.800 401.590,288.800 400.600 C 288.800 399.610,288.620 398.800,288.400 398.800 C 288.180 398.800,288.000 398.001,288.000 397.024 C 288.000 396.047,287.838 395.147,287.641 395.025 C 287.443 394.903,287.153 393.497,286.996 391.902 C 286.839 390.306,286.574 388.820,286.406 388.600 C 286.238 388.380,285.977 387.210,285.826 386.000 C 285.283 381.671,285.111 380.792,284.758 380.574 C 284.561 380.452,284.400 379.733,284.400 378.976 C 284.400 378.219,284.220 377.600,284.000 377.600 C 283.780 377.600,283.600 376.880,283.600 376.000 C 283.600 375.120,283.420 374.400,283.200 374.400 C 282.980 374.400,282.800 373.770,282.800 373.000 C 282.800 372.230,282.620 371.600,282.400 371.600 C 282.180 371.600,282.000 370.878,282.000 369.995 C 282.000 369.112,281.838 368.077,281.639 367.695 C 281.440 367.313,281.074 365.830,280.824 364.400 C 280.574 362.970,280.267 361.213,280.141 360.496 C 280.015 359.779,279.751 359.094,279.556 358.973 C 279.360 358.852,279.200 358.223,279.200 357.576 C 279.200 356.929,279.020 356.400,278.800 356.400 C 278.580 356.400,278.400 355.770,278.400 355.000 C 278.400 354.230,278.220 353.600,278.000 353.600 C 277.780 353.600,277.600 352.801,277.600 351.824 C 277.600 350.847,277.420 349.936,277.200 349.800 C 276.980 349.664,276.800 349.034,276.800 348.400 C 276.800 347.766,276.620 347.136,276.400 347.000 C 276.180 346.864,276.000 346.223,276.000 345.576 C 276.000 344.929,275.820 344.400,275.600 344.400 C 275.380 344.400,275.200 343.860,275.200 343.200 C 275.200 342.540,275.044 342.000,274.854 342.000 C 274.664 342.000,274.392 341.145,274.250 340.100 C 273.849 337.160,273.051 334.000,272.709 334.000 C 272.539 334.000,272.400 333.471,272.400 332.824 C 272.400 332.177,272.220 331.536,272.000 331.400 C 271.780 331.264,271.600 330.623,271.600 329.976 C 271.600 329.329,271.420 328.800,271.200 328.800 C 270.980 328.800,270.800 328.260,270.800 327.600 C 270.800 326.940,270.620 326.400,270.400 326.400 C 270.180 326.400,270.000 325.781,270.000 325.024 C 270.000 324.267,269.820 323.536,269.600 323.400 C 269.380 323.264,269.200 322.634,269.200 322.000 C 269.200 321.366,269.020 320.736,268.800 320.600 C 268.580 320.464,268.400 319.823,268.400 319.176 C 268.400 318.529,268.243 318.000,268.052 318.000 C 267.860 318.000,267.582 316.925,267.433 315.612 C 267.285 314.299,266.991 313.118,266.782 312.989 C 266.572 312.859,266.400 312.234,266.400 311.600 C 266.400 310.966,266.220 310.336,266.000 310.200 C 265.780 310.064,265.600 309.243,265.600 308.376 C 265.600 307.509,265.420 306.800,265.200 306.800 C 264.980 306.800,264.800 306.271,264.800 305.624 C 264.800 304.977,264.620 304.336,264.400 304.200 C 264.180 304.064,264.000 303.423,264.000 302.776 C 264.000 302.129,263.820 301.600,263.600 301.600 C 263.380 301.600,263.200 301.060,263.200 300.400 C 263.200 299.740,263.020 299.200,262.800 299.200 C 262.580 299.200,262.400 298.570,262.400 297.800 C 262.400 297.030,262.246 296.400,262.057 296.400 C 261.868 296.400,261.600 295.312,261.461 293.982 C 261.322 292.651,261.027 291.223,260.804 290.808 C 260.582 290.392,260.400 289.591,260.400 289.026 C 260.400 288.462,260.220 288.000,260.000 288.000 C 259.780 288.000,259.600 287.381,259.600 286.624 C 259.600 285.867,259.420 285.136,259.200 285.000 C 258.980 284.864,258.800 284.313,258.800 283.776 C 258.800 283.239,258.620 282.800,258.400 282.800 C 258.180 282.800,258.000 282.001,258.000 281.024 C 258.000 280.047,257.820 279.136,257.600 279.000 C 257.380 278.864,257.200 278.313,257.200 277.776 C 257.200 277.239,257.020 276.800,256.800 276.800 C 256.580 276.800,256.400 276.080,256.400 275.200 C 256.400 274.320,256.220 273.600,256.000 273.600 C 255.780 273.600,255.600 273.060,255.600 272.400 C 255.600 271.740,255.437 271.200,255.238 271.200 C 255.038 271.200,254.754 270.255,254.606 269.100 C 254.458 267.945,254.183 266.460,253.995 265.800 C 253.808 265.140,253.444 263.790,253.188 262.800 C 252.932 261.810,252.560 260.687,252.361 260.305 C 252.162 259.923,252.000 259.169,252.000 258.629 C 252.000 258.089,251.820 257.536,251.600 257.400 C 251.380 257.264,251.200 256.623,251.200 255.976 C 251.200 255.329,251.020 254.800,250.800 254.800 C 250.580 254.800,250.400 254.170,250.400 253.400 C 250.400 252.630,250.220 252.000,250.000 252.000 C 249.780 252.000,249.600 251.280,249.600 250.400 C 249.600 249.520,249.420 248.800,249.200 248.800 C 248.980 248.800,248.792 248.215,248.782 247.500 C 248.773 246.785,248.505 245.480,248.188 244.600 C 247.871 243.720,247.609 242.595,247.606 242.100 C 247.603 241.605,247.420 241.200,247.200 241.200 C 246.980 241.200,246.800 240.671,246.800 240.024 C 246.800 239.377,246.620 238.736,246.400 238.600 C 246.180 238.464,246.000 237.654,246.000 236.800 C 246.000 235.946,245.820 235.136,245.600 235.000 C 245.380 234.864,245.200 234.223,245.200 233.576 C 245.200 232.929,245.020 232.400,244.800 232.400 C 244.580 232.400,244.400 231.860,244.400 231.200 C 244.400 230.540,244.220 230.000,244.000 230.000 C 243.780 230.000,243.600 229.381,243.600 228.624 C 243.600 227.867,243.420 227.136,243.200 227.000 C 242.980 226.864,242.800 226.313,242.800 225.776 C 242.800 225.239,242.646 224.800,242.458 224.800 C 242.270 224.800,242.004 223.609,241.869 222.154 C 241.733 220.699,241.459 219.304,241.261 219.054 C 241.063 218.804,240.794 218.060,240.665 217.400 C 240.535 216.740,240.312 215.615,240.169 214.900 C 240.026 214.185,239.750 213.600,239.555 213.600 C 239.360 213.600,239.200 213.071,239.200 212.424 C 239.200 211.777,239.020 211.136,238.800 211.000 C 238.580 210.864,238.400 210.043,238.400 209.176 C 238.400 208.309,238.220 207.600,238.000 207.600 C 237.780 207.600,237.600 206.981,237.600 206.224 C 237.600 205.467,237.420 204.736,237.200 204.600 C 236.980 204.464,236.800 203.924,236.800 203.400 C 236.800 202.876,236.640 202.348,236.444 202.227 C 236.249 202.106,235.968 201.528,235.821 200.942 C 235.241 198.629,232.446 195.242,230.354 194.315 C 229.719 194.035,229.200 193.669,229.200 193.502 C 229.200 193.336,228.851 193.200,228.424 193.200 C 227.997 193.200,227.536 193.020,227.400 192.800 C 227.264 192.580,226.803 192.400,226.376 192.400 C 225.949 192.400,225.600 192.220,225.600 192.000 C 225.600 191.738,217.200 191.600,201.200 191.600 C 185.200 191.600,176.800 191.738,176.800 192.000 C 176.800 192.220,176.260 192.400,175.600 192.400 C 174.940 192.400,174.400 192.580,174.400 192.800 C 174.400 193.020,174.040 193.200,173.600 193.200 C 173.160 193.200,172.800 193.380,172.800 193.600 C 172.800 193.820,172.529 194.000,172.198 194.000 C 171.446 194.000,167.600 197.881,167.600 198.641 C 167.600 198.948,167.420 199.200,167.200 199.200 C 166.980 199.200,166.800 199.560,166.800 200.000 C 166.800 200.440,166.620 200.800,166.400 200.800 C 166.180 200.800,166.000 201.157,166.000 201.594 C 166.000 202.504,165.344 205.382,164.546 207.971 C 164.246 208.945,164.000 210.250,164.000 210.871 C 164.000 211.492,163.820 212.000,163.600 212.000 C 163.380 212.000,163.200 212.540,163.200 213.200 C 163.200 213.860,163.039 214.400,162.842 214.400 C 162.645 214.400,162.375 215.120,162.242 216.000 C 162.109 216.880,161.891 218.320,161.758 219.200 C 161.625 220.080,161.355 220.800,161.158 220.800 C 160.961 220.800,160.800 221.340,160.800 222.000 C 160.800 222.660,160.640 223.200,160.444 223.200 C 160.248 223.200,159.995 223.785,159.881 224.500 C 159.767 225.215,159.461 226.520,159.200 227.400 C 158.940 228.280,158.518 230.201,158.263 231.669 C 158.008 233.136,157.665 234.471,157.500 234.635 C 157.335 234.799,157.200 235.533,157.200 236.267 C 157.200 237.000,157.020 237.600,156.800 237.600 C 156.580 237.600,156.400 238.039,156.400 238.576 C 156.400 239.113,156.220 239.664,156.000 239.800 C 155.780 239.936,155.600 240.667,155.600 241.424 C 155.600 242.181,155.420 242.800,155.200 242.800 C 154.980 242.800,154.800 243.329,154.800 243.976 C 154.800 244.623,154.620 245.264,154.400 245.400 C 154.180 245.536,154.000 246.357,154.000 247.224 C 154.000 248.091,153.840 248.800,153.644 248.800 C 153.448 248.800,153.197 249.385,153.087 250.100 C 152.778 252.107,151.152 258.517,150.755 259.295 C 150.560 259.677,150.400 260.532,150.400 261.195 C 150.400 261.858,150.220 262.400,150.000 262.400 C 149.780 262.400,149.600 263.019,149.600 263.776 C 149.600 264.533,149.420 265.264,149.200 265.400 C 148.980 265.536,148.800 266.267,148.800 267.024 C 148.800 267.781,148.620 268.400,148.400 268.400 C 148.180 268.400,148.000 268.940,148.000 269.600 C 148.000 270.260,147.820 270.800,147.600 270.800 C 147.380 270.800,147.196 271.295,147.190 271.900 C 147.185 272.505,146.840 274.017,146.424 275.260 C 146.008 276.502,145.542 278.527,145.388 279.760 C 145.234 280.992,144.949 282.000,144.754 282.000 C 144.559 282.000,144.400 282.630,144.400 283.400 C 144.400 284.170,144.220 284.800,144.000 284.800 C 143.780 284.800,143.600 285.329,143.600 285.976 C 143.600 286.623,143.420 287.264,143.200 287.400 C 142.980 287.536,142.800 288.267,142.800 289.024 C 142.800 289.781,142.620 290.400,142.400 290.400 C 142.180 290.400,142.000 291.210,142.000 292.200 C 142.000 293.190,141.820 294.000,141.600 294.000 C 141.380 294.000,141.200 294.540,141.200 295.200 C 141.200 295.860,141.020 296.400,140.800 296.400 C 140.580 296.400,140.400 296.929,140.400 297.576 C 140.400 298.223,140.220 298.864,140.000 299.000 C 139.780 299.136,139.597 299.642,139.594 300.124 C 139.591 300.606,139.329 301.720,139.012 302.600 C 138.695 303.480,138.427 304.954,138.418 305.876 C 138.408 306.798,138.220 307.664,138.000 307.800 C 137.780 307.936,137.600 308.489,137.600 309.029 C 137.600 309.569,137.438 310.323,137.239 310.705 C 137.040 311.087,136.663 312.210,136.400 313.200 C 136.137 314.190,135.760 315.313,135.561 315.695 C 135.362 316.077,135.200 316.741,135.200 317.171 C 135.200 317.601,135.039 318.052,134.842 318.174 C 134.645 318.295,134.375 319.116,134.242 319.997 C 134.109 320.879,133.891 322.320,133.758 323.200 C 133.625 324.080,133.373 324.800,133.197 324.800 C 133.022 324.800,132.753 325.880,132.600 327.200 C 132.447 328.520,132.159 329.600,131.961 329.600 C 131.762 329.600,131.600 330.230,131.600 331.000 C 131.600 331.770,131.420 332.400,131.200 332.400 C 130.980 332.400,130.800 333.019,130.800 333.776 C 130.800 334.533,130.620 335.264,130.400 335.400 C 130.180 335.536,130.000 336.267,130.000 337.024 C 130.000 337.781,129.820 338.400,129.600 338.400 C 129.380 338.400,129.200 339.019,129.200 339.776 C 129.200 340.533,129.020 341.264,128.800 341.400 C 128.580 341.536,128.400 341.999,128.400 342.429 C 128.400 342.859,128.238 343.523,128.039 343.905 C 127.840 344.287,127.495 345.320,127.271 346.200 C 127.047 347.080,126.678 348.520,126.452 349.400 C 126.226 350.280,125.919 351.945,125.769 353.100 C 125.619 354.255,125.340 355.200,125.148 355.200 C 124.957 355.200,124.800 355.830,124.800 356.600 C 124.800 357.370,124.620 358.000,124.400 358.000 C 124.180 358.000,124.000 358.540,124.000 359.200 C 124.000 359.860,123.820 360.400,123.600 360.400 C 123.380 360.400,123.200 361.030,123.200 361.800 C 123.200 362.570,123.020 363.200,122.800 363.200 C 122.580 363.200,122.400 364.010,122.400 365.000 C 122.400 365.990,122.220 366.800,122.000 366.800 C 121.780 366.800,121.600 367.329,121.600 367.976 C 121.600 368.623,121.420 369.264,121.200 369.400 C 120.980 369.536,120.800 370.267,120.800 371.024 C 120.800 371.781,120.631 372.400,120.424 372.400 C 120.218 372.400,119.924 373.660,119.773 375.200 C 119.621 376.740,119.340 378.000,119.148 378.000 C 118.957 378.000,118.800 378.810,118.800 379.800 C 118.800 380.790,118.620 381.600,118.400 381.600 C 118.180 381.600,118.000 382.410,118.000 383.400 C 118.000 384.390,117.820 385.200,117.600 385.200 C 117.380 385.200,117.200 386.010,117.200 387.000 C 117.200 387.990,117.020 388.800,116.800 388.800 C 116.580 388.800,116.400 389.520,116.400 390.400 C 116.400 391.280,116.220 392.000,116.000 392.000 C 115.780 392.000,115.600 392.810,115.600 393.800 C 115.600 394.790,115.420 395.600,115.200 395.600 C 114.980 395.600,114.800 396.489,114.800 397.576 C 114.800 398.663,114.620 399.664,114.400 399.800 C 114.180 399.936,114.000 400.948,114.000 402.050 C 114.000 403.151,113.829 404.373,113.619 404.764 C 113.410 405.156,113.114 407.124,112.962 409.138 C 112.810 411.152,112.531 412.800,112.343 412.800 C 112.154 412.800,112.000 413.779,112.000 414.976 C 112.000 417.001,111.515 418.047,110.873 417.408 C 110.600 417.136,110.159 413.026,109.756 407.000 C 109.638 405.240,109.375 403.629,109.171 403.420 C 108.967 403.211,108.800 401.726,108.800 400.120 C 108.800 398.440,108.630 397.200,108.400 397.200 C 108.175 397.200,108.000 396.075,108.000 394.624 C 108.000 393.207,107.820 391.936,107.600 391.800 C 107.380 391.664,107.200 390.224,107.200 388.600 C 107.200 386.976,107.044 385.551,106.852 385.432 C 106.661 385.314,106.378 383.596,106.223 381.614 C 106.068 379.632,105.774 377.908,105.570 377.782 C 105.367 377.656,105.200 376.854,105.200 376.000 C 105.200 375.146,105.020 374.336,104.800 374.200 C 104.580 374.064,104.400 373.243,104.400 372.376 C 104.400 371.509,104.220 370.800,104.000 370.800 C 103.780 370.800,103.600 370.001,103.600 369.024 C 103.600 368.047,103.420 367.136,103.200 367.000 C 102.980 366.864,102.800 366.054,102.800 365.200 C 102.800 364.346,102.620 363.536,102.400 363.400 C 102.180 363.264,102.000 362.623,102.000 361.976 C 102.000 361.329,101.820 360.800,101.600 360.800 C 101.380 360.800,101.200 360.170,101.200 359.400 C 101.200 358.630,101.020 358.000,100.800 358.000 C 100.580 358.000,100.391 357.415,100.381 356.700 C 100.357 355.092,99.079 348.946,98.687 348.554 C 98.529 348.396,98.400 347.677,98.400 346.957 C 98.400 346.237,98.220 345.536,98.000 345.400 C 97.780 345.264,97.600 344.544,97.600 343.800 C 97.600 343.056,97.420 342.336,97.200 342.200 C 96.980 342.064,96.800 341.513,96.800 340.976 C 96.800 340.439,96.620 340.000,96.400 340.000 C 96.180 340.000,96.000 339.201,96.000 338.224 C 96.000 337.247,95.820 336.336,95.600 336.200 C 95.380 336.064,95.200 335.254,95.200 334.400 C 95.200 333.546,95.020 332.736,94.800 332.600 C 94.580 332.464,94.400 331.733,94.400 330.976 C 94.400 330.219,94.250 329.600,94.066 329.600 C 93.772 329.600,93.539 328.574,92.541 322.896 C 92.415 322.179,92.151 321.494,91.956 321.373 C 91.760 321.252,91.600 320.364,91.600 319.400 C 91.600 318.436,91.420 317.536,91.200 317.400 C 90.980 317.264,90.800 316.533,90.800 315.776 C 90.800 315.019,90.620 314.400,90.400 314.400 C 90.180 314.400,90.000 313.781,90.000 313.024 C 90.000 312.267,89.820 311.536,89.600 311.400 C 89.380 311.264,89.200 310.533,89.200 309.776 C 89.200 309.019,89.020 308.400,88.800 308.400 C 88.580 308.400,88.400 307.770,88.400 307.000 C 88.400 306.230,88.220 305.600,88.000 305.600 C 87.780 305.600,87.592 304.925,87.583 304.100 C 87.566 302.654,87.284 301.117,86.371 297.500 C 86.135 296.565,85.846 295.215,85.727 294.500 C 85.609 293.785,85.352 293.200,85.156 293.200 C 84.960 293.200,84.800 292.581,84.800 291.824 C 84.800 291.067,84.620 290.336,84.400 290.200 C 84.180 290.064,84.000 289.254,84.000 288.400 C 84.000 287.546,83.820 286.736,83.600 286.600 C 83.380 286.464,83.200 285.733,83.200 284.976 C 83.200 284.219,83.020 283.600,82.800 283.600 C 82.580 283.600,82.400 282.880,82.400 282.000 C 82.400 281.120,82.220 280.400,82.000 280.400 C 81.780 280.400,81.600 279.858,81.600 279.195 C 81.600 278.532,81.440 277.677,81.244 277.295 C 80.927 276.677,79.485 269.968,78.923 266.496 C 78.807 265.779,78.551 265.094,78.356 264.973 C 78.160 264.852,78.000 264.234,78.000 263.600 C 78.000 262.966,77.820 262.336,77.600 262.200 C 77.380 262.064,77.200 261.333,77.200 260.576 C 77.200 259.819,77.020 259.200,76.800 259.200 C 76.580 259.200,76.400 258.570,76.400 257.800 C 76.400 257.030,76.220 256.400,76.000 256.400 C 75.780 256.400,75.600 255.511,75.600 254.424 C 75.600 253.337,75.420 252.336,75.200 252.200 C 74.980 252.064,74.800 251.423,74.800 250.776 C 74.800 250.129,74.643 249.600,74.452 249.600 C 74.260 249.600,73.980 248.344,73.828 246.809 C 73.677 245.274,73.384 243.914,73.177 243.786 C 72.970 243.658,72.800 242.944,72.800 242.200 C 72.800 241.456,72.620 240.736,72.400 240.600 C 72.180 240.464,72.000 239.654,72.000 238.800 C 72.000 237.946,71.820 237.136,71.600 237.000 C 71.380 236.864,71.200 236.144,71.200 235.400 C 71.200 234.656,71.020 233.936,70.800 233.800 C 70.580 233.664,70.400 232.933,70.400 232.176 C 70.400 231.419,70.220 230.800,70.000 230.800 C 69.780 230.800,69.600 230.181,69.600 229.424 C 69.600 228.667,69.420 227.936,69.200 227.800 C 68.980 227.664,68.800 227.113,68.800 226.576 C 68.800 226.039,68.620 225.600,68.400 225.600 C 68.180 225.600,67.996 224.835,67.990 223.900 C 67.985 222.965,67.787 221.480,67.550 220.600 C 67.312 219.720,67.028 218.324,66.917 217.497 C 66.806 216.671,66.555 215.895,66.358 215.774 C 66.161 215.652,66.000 214.933,66.000 214.176 C 66.000 213.419,65.820 212.800,65.600 212.800 C 65.380 212.800,65.200 212.181,65.200 211.424 C 65.200 210.667,65.020 209.936,64.800 209.800 C 64.580 209.664,64.400 208.933,64.400 208.176 C 64.400 207.419,64.220 206.800,64.000 206.800 C 63.780 206.800,63.600 206.001,63.600 205.024 C 63.600 204.047,63.420 203.136,63.200 203.000 C 62.980 202.864,62.800 202.133,62.800 201.376 C 62.800 200.619,62.620 200.000,62.400 200.000 C 62.180 200.000,62.000 199.640,62.000 199.200 C 62.000 198.760,61.820 198.400,61.600 198.400 C 61.380 198.400,61.200 198.070,61.200 197.667 C 61.200 196.716,58.484 194.000,57.533 194.000 C 57.130 194.000,56.800 193.820,56.800 193.600 C 56.800 193.380,56.440 193.200,56.000 193.200 C 55.560 193.200,55.200 193.020,55.200 192.800 C 55.200 192.580,54.750 192.400,54.200 192.400 C 53.650 192.400,53.200 192.220,53.200 192.000 C 53.200 191.739,46.267 191.600,33.200 191.600 C 20.133 191.600,13.200 191.739,13.200 192.000 " stroke="none" fill="#0464ac" fill-rule="evenodd"></path><path id="path1" d="M180.700 0.271 C 178.555 0.358,176.800 0.602,176.800 0.814 C 176.800 1.028,175.458 1.200,173.800 1.200 C 172.067 1.200,170.800 1.369,170.800 1.600 C 170.800 1.822,169.733 2.000,168.400 2.000 C 167.080 2.000,166.000 2.154,166.000 2.342 C 166.000 2.531,164.605 2.805,162.900 2.951 C 161.195 3.097,158.360 3.499,156.600 3.844 C 154.840 4.190,152.725 4.565,151.900 4.678 C 151.075 4.791,150.400 5.045,150.400 5.242 C 150.400 5.439,149.781 5.600,149.024 5.600 C 148.267 5.600,147.536 5.780,147.400 6.000 C 147.264 6.220,146.634 6.400,146.000 6.400 C 145.366 6.400,144.736 6.580,144.600 6.800 C 144.464 7.020,143.744 7.200,143.000 7.200 C 142.256 7.200,141.536 7.380,141.400 7.600 C 141.264 7.820,140.713 8.000,140.176 8.000 C 139.639 8.000,139.200 8.180,139.200 8.400 C 139.200 8.620,138.581 8.800,137.824 8.800 C 137.067 8.800,136.346 8.964,136.222 9.165 C 136.097 9.366,135.308 9.647,134.466 9.789 C 132.717 10.084,130.146 10.921,129.741 11.326 C 129.590 11.477,128.957 11.600,128.333 11.600 C 127.710 11.600,127.200 11.747,127.200 11.928 C 127.200 12.108,126.300 12.500,125.200 12.800 C 124.100 13.100,123.200 13.492,123.200 13.672 C 123.200 13.853,122.840 14.000,122.400 14.000 C 121.960 14.000,121.600 14.180,121.600 14.400 C 121.600 14.620,121.150 14.800,120.600 14.800 C 120.050 14.800,119.600 14.980,119.600 15.200 C 119.600 15.420,119.144 15.600,118.586 15.600 C 118.028 15.600,115.884 16.410,113.821 17.400 C 111.759 18.390,109.785 19.200,109.435 19.200 C 109.086 19.200,108.800 19.380,108.800 19.600 C 108.800 19.820,108.440 20.000,108.000 20.000 C 107.560 20.000,107.200 20.180,107.200 20.400 C 107.200 20.620,106.930 20.800,106.600 20.800 C 106.270 20.800,106.000 20.980,106.000 21.200 C 106.000 21.420,105.640 21.600,105.200 21.600 C 104.760 21.600,104.400 21.780,104.400 22.000 C 104.400 22.220,104.108 22.400,103.750 22.400 C 102.837 22.400,98.400 24.436,98.400 24.855 C 98.400 25.045,98.040 25.200,97.600 25.200 C 97.160 25.200,96.799 25.335,96.797 25.500 C 96.795 25.665,96.390 25.998,95.897 26.240 C 93.909 27.215,89.335 29.770,88.338 30.462 C 87.754 30.868,87.079 31.200,86.838 31.200 C 86.597 31.200,86.400 31.380,86.400 31.600 C 86.400 31.820,86.164 32.000,85.875 32.000 C 85.587 32.000,84.964 32.360,84.492 32.800 C 84.020 33.240,83.446 33.600,83.217 33.600 C 82.988 33.600,82.800 33.780,82.800 34.000 C 82.800 34.220,82.530 34.400,82.200 34.400 C 81.870 34.400,81.600 34.580,81.600 34.800 C 81.600 35.020,81.343 35.200,81.029 35.200 C 80.714 35.200,80.219 35.425,79.929 35.700 C 79.638 35.975,78.905 36.455,78.300 36.768 C 77.695 37.080,77.200 37.485,77.200 37.668 C 77.200 37.850,76.970 38.000,76.688 38.000 C 76.407 38.000,75.917 38.360,75.600 38.800 C 75.283 39.240,74.827 39.600,74.587 39.600 C 74.347 39.600,73.802 39.915,73.375 40.300 C 72.949 40.685,71.610 41.649,70.400 42.443 C 69.190 43.236,67.435 44.631,66.500 45.543 C 65.564 46.454,64.619 47.200,64.400 47.200 C 64.181 47.200,63.259 47.920,62.352 48.800 C 61.445 49.680,60.550 50.400,60.362 50.400 C 60.175 50.400,59.246 51.165,58.298 52.100 C 57.350 53.035,55.535 54.678,54.264 55.751 C 50.652 58.800,39.600 69.994,39.600 70.603 C 39.600 70.740,38.610 71.811,37.400 72.983 C 36.190 74.155,35.200 75.313,35.200 75.557 C 35.200 75.801,35.020 76.000,34.800 76.000 C 34.580 76.000,34.400 76.194,34.400 76.431 C 34.400 76.669,33.680 77.554,32.800 78.400 C 31.920 79.246,31.200 80.040,31.200 80.166 C 31.200 80.291,30.851 80.800,30.424 81.297 C 28.003 84.113,27.601 84.630,27.600 84.929 C 27.600 85.109,27.375 85.496,27.100 85.788 C 25.392 87.603,22.400 91.729,22.400 92.271 C 22.400 92.400,22.084 92.797,21.697 93.153 C 21.311 93.509,20.740 94.295,20.430 94.900 C 20.119 95.505,19.715 96.000,19.532 96.000 C 19.350 96.000,19.200 96.320,19.200 96.712 C 19.200 97.103,18.840 97.683,18.400 98.000 C 17.960 98.317,17.600 98.785,17.600 99.039 C 17.600 99.294,17.330 99.726,17.000 100.000 C 16.670 100.274,16.400 100.836,16.400 101.249 C 16.400 101.662,16.220 102.000,16.000 102.000 C 15.780 102.000,15.600 102.320,15.600 102.712 C 15.600 103.103,15.240 103.683,14.800 104.000 C 14.360 104.317,14.000 104.882,14.000 105.255 C 14.000 105.628,13.858 105.993,13.686 106.067 C 13.202 106.272,11.600 108.665,11.600 109.183 C 11.600 109.436,11.150 110.305,10.600 111.114 C 10.050 111.923,9.600 112.904,9.600 113.293 C 9.600 113.682,9.453 114.000,9.274 114.000 C 8.875 114.000,7.200 117.072,7.200 117.804 C 7.200 118.095,7.065 118.393,6.900 118.467 C 6.735 118.540,5.902 120.040,5.048 121.800 C 4.195 123.560,3.340 125.313,3.148 125.695 C 2.957 126.077,2.800 126.662,2.800 126.995 C 2.800 127.328,2.620 127.600,2.400 127.600 C 2.180 127.600,2.000 127.960,2.000 128.400 C 2.000 128.840,1.820 129.200,1.600 129.200 C 1.380 129.200,1.200 129.614,1.200 130.120 C 1.200 130.626,0.975 131.265,0.700 131.541 C -0.011 132.252,-0.011 146.150,0.700 146.860 C 0.975 147.135,1.200 147.684,1.200 148.080 C 1.200 148.476,1.380 148.800,1.600 148.800 C 1.820 148.800,2.000 149.070,2.000 149.400 C 2.000 149.730,2.180 150.000,2.400 150.000 C 2.620 150.000,2.800 150.274,2.800 150.608 C 2.800 152.206,7.534 157.433,10.221 158.800 C 10.869 159.130,11.638 159.625,11.928 159.899 C 12.218 160.174,12.938 160.517,13.528 160.661 C 14.118 160.805,14.715 161.098,14.855 161.312 C 14.995 161.525,16.394 161.792,17.965 161.905 C 19.535 162.017,20.916 162.264,21.034 162.454 C 21.313 162.906,25.200 162.905,25.200 162.454 C 25.200 162.263,26.415 162.018,27.900 161.909 C 30.403 161.725,34.395 160.329,34.733 159.519 C 34.807 159.343,35.095 159.200,35.374 159.200 C 35.653 159.200,36.446 158.660,37.137 158.000 C 37.828 157.340,38.513 156.800,38.660 156.800 C 39.138 156.800,42.406 153.030,42.907 151.900 C 43.176 151.295,43.531 150.800,43.698 150.800 C 43.864 150.800,44.000 150.440,44.000 150.000 C 44.000 149.560,44.180 149.200,44.400 149.200 C 44.620 149.200,44.800 148.750,44.800 148.200 C 44.800 147.650,44.980 147.200,45.200 147.200 C 45.420 147.200,45.600 146.840,45.600 146.400 C 45.600 145.960,45.780 145.600,46.000 145.600 C 46.220 145.600,46.400 145.240,46.400 144.800 C 46.400 144.360,46.580 144.000,46.800 144.000 C 47.020 144.000,47.200 143.651,47.200 143.224 C 47.200 142.797,47.360 142.349,47.555 142.228 C 47.750 142.107,48.032 141.356,48.181 140.559 C 48.331 139.762,48.801 138.736,49.227 138.279 C 49.652 137.823,50.000 137.213,50.000 136.925 C 50.000 136.636,50.135 136.399,50.300 136.399 C 50.465 136.398,51.050 135.408,51.600 134.200 C 52.150 132.992,52.735 132.002,52.900 132.001 C 53.065 132.001,53.200 131.640,53.200 131.200 C 53.200 130.760,53.335 130.399,53.500 130.397 C 53.902 130.394,55.200 128.081,55.200 127.368 C 55.200 127.055,55.380 126.800,55.600 126.800 C 55.820 126.800,56.000 126.480,56.000 126.088 C 56.000 125.697,56.360 125.117,56.800 124.800 C 57.240 124.483,57.600 124.076,57.600 123.895 C 57.600 123.714,57.936 123.206,58.346 122.766 C 58.756 122.326,59.598 121.028,60.216 119.883 C 60.835 118.737,61.669 117.509,62.070 117.153 C 62.472 116.797,62.800 116.342,62.800 116.141 C 62.800 115.941,63.160 115.517,63.600 115.200 C 64.040 114.883,64.400 114.431,64.400 114.195 C 64.400 113.959,65.209 112.874,66.198 111.783 C 67.187 110.692,67.997 109.660,67.998 109.489 C 67.999 109.319,68.810 108.369,69.800 107.379 C 70.790 106.389,71.602 105.449,71.604 105.289 C 71.606 105.130,72.506 104.057,73.604 102.905 C 74.702 101.752,75.600 100.615,75.600 100.376 C 75.600 99.864,76.598 98.800,77.078 98.800 C 77.262 98.800,78.130 97.962,79.006 96.938 C 80.816 94.824,82.747 92.882,83.915 92.000 C 84.352 91.670,86.054 90.140,87.697 88.600 C 91.242 85.277,92.724 84.000,93.034 84.000 C 93.160 84.000,93.954 83.280,94.800 82.400 C 95.646 81.520,96.621 80.800,96.969 80.800 C 97.316 80.800,97.600 80.659,97.600 80.486 C 97.600 80.314,98.095 79.873,98.700 79.506 C 99.305 79.140,100.302 78.399,100.915 77.861 C 101.528 77.322,103.508 75.921,105.315 74.747 C 107.122 73.573,108.690 72.519,108.800 72.405 C 108.910 72.292,109.540 71.929,110.200 71.599 C 110.860 71.270,111.749 70.685,112.175 70.300 C 112.602 69.915,113.187 69.600,113.475 69.600 C 113.764 69.600,114.000 69.464,114.000 69.298 C 114.000 69.131,114.585 68.741,115.300 68.430 C 116.015 68.119,116.690 67.760,116.800 67.632 C 116.910 67.504,117.720 67.043,118.600 66.606 C 119.480 66.170,121.063 65.315,122.118 64.706 C 123.172 64.098,124.297 63.600,124.618 63.600 C 124.938 63.600,125.200 63.420,125.200 63.200 C 125.200 62.980,125.560 62.800,126.000 62.800 C 126.440 62.800,126.800 62.620,126.800 62.400 C 126.800 62.180,127.160 62.000,127.600 62.000 C 128.040 62.000,128.400 61.820,128.400 61.600 C 128.400 61.380,128.760 61.200,129.200 61.200 C 129.640 61.200,130.000 61.065,130.000 60.900 C 130.000 60.735,131.170 60.247,132.600 59.815 C 134.030 59.383,135.200 58.888,135.200 58.715 C 135.200 58.542,135.549 58.400,135.976 58.400 C 136.403 58.400,136.864 58.220,137.000 58.000 C 137.136 57.780,137.597 57.600,138.024 57.600 C 138.451 57.600,138.800 57.420,138.800 57.200 C 138.800 56.980,139.160 56.800,139.600 56.800 C 140.040 56.800,140.400 56.620,140.400 56.400 C 140.400 56.180,141.030 56.000,141.800 56.000 C 142.570 56.000,143.200 55.820,143.200 55.600 C 143.200 55.380,143.639 55.200,144.176 55.200 C 144.713 55.200,145.264 55.020,145.400 54.800 C 145.536 54.580,145.984 54.400,146.396 54.400 C 146.808 54.400,148.642 53.938,150.472 53.373 C 152.303 52.809,154.353 52.179,155.028 51.973 C 155.704 51.768,156.739 51.600,157.328 51.600 C 157.918 51.600,158.400 51.420,158.400 51.200 C 158.400 50.980,159.019 50.800,159.776 50.800 C 160.533 50.800,161.264 50.620,161.400 50.400 C 161.536 50.180,162.267 50.000,163.024 50.000 C 163.781 50.000,164.400 49.820,164.400 49.600 C 164.400 49.380,165.300 49.200,166.400 49.200 C 167.500 49.200,168.400 49.020,168.400 48.800 C 168.400 48.571,169.600 48.400,171.200 48.400 C 172.740 48.400,174.000 48.245,174.000 48.056 C 174.000 47.423,187.676 46.721,200.000 46.721 C 212.324 46.721,226.000 47.423,226.000 48.056 C 226.000 48.245,227.260 48.400,228.800 48.400 C 230.400 48.400,231.600 48.571,231.600 48.800 C 231.600 49.020,232.309 49.200,233.176 49.200 C 234.043 49.200,234.864 49.380,235.000 49.600 C 235.136 49.820,235.957 50.000,236.824 50.000 C 237.691 50.000,238.400 50.180,238.400 50.400 C 238.400 50.620,239.120 50.800,240.000 50.800 C 240.880 50.800,241.600 50.980,241.600 51.200 C 241.600 51.420,242.219 51.600,242.976 51.600 C 243.733 51.600,244.464 51.780,244.600 52.000 C 244.736 52.220,245.467 52.400,246.224 52.400 C 246.981 52.400,247.600 52.560,247.600 52.755 C 247.600 52.950,248.095 53.215,248.700 53.345 C 249.305 53.474,250.835 53.803,252.100 54.076 C 253.365 54.349,254.400 54.713,254.400 54.886 C 254.400 55.059,254.839 55.200,255.376 55.200 C 255.913 55.200,256.464 55.380,256.600 55.600 C 256.736 55.820,257.287 56.000,257.824 56.000 C 258.361 56.000,258.800 56.180,258.800 56.400 C 258.800 56.620,259.325 56.800,259.967 56.800 C 260.608 56.800,261.193 56.935,261.267 57.100 C 261.445 57.502,264.525 58.970,267.000 59.834 C 268.100 60.218,269.171 60.682,269.380 60.866 C 269.589 61.050,270.069 61.200,270.447 61.200 C 270.824 61.200,271.193 61.335,271.267 61.500 C 271.459 61.932,274.772 63.600,275.438 63.600 C 275.747 63.600,276.000 63.780,276.000 64.000 C 276.000 64.220,276.360 64.400,276.800 64.400 C 277.240 64.400,277.603 64.535,277.607 64.700 C 277.610 64.865,278.735 65.540,280.107 66.200 C 281.478 66.860,282.660 67.535,282.733 67.700 C 282.807 67.865,283.129 68.000,283.450 68.000 C 283.771 68.000,284.420 68.360,284.892 68.800 C 285.364 69.240,285.987 69.600,286.275 69.600 C 286.564 69.600,286.800 69.780,286.800 70.000 C 286.800 70.220,287.070 70.400,287.400 70.400 C 287.730 70.400,288.001 70.535,288.003 70.700 C 288.005 70.865,288.410 71.201,288.903 71.448 C 291.809 72.898,292.666 73.416,293.247 74.070 C 293.603 74.472,294.098 74.800,294.347 74.800 C 294.596 74.800,294.800 74.980,294.800 75.200 C 294.800 75.420,295.094 75.600,295.453 75.600 C 295.812 75.600,296.397 75.930,296.753 76.334 C 297.412 77.083,301.425 80.000,301.795 80.000 C 301.907 80.000,302.741 80.720,303.648 81.600 C 304.555 82.480,305.449 83.200,305.635 83.200 C 305.821 83.200,306.603 83.830,307.373 84.600 C 308.143 85.370,308.959 86.000,309.187 86.000 C 309.414 86.000,309.600 86.180,309.600 86.400 C 309.600 86.620,309.788 86.800,310.017 86.800 C 310.247 86.800,311.487 87.835,312.773 89.100 C 314.059 90.365,315.315 91.580,315.565 91.800 C 315.815 92.020,316.524 92.740,317.142 93.400 C 317.760 94.060,318.791 95.070,319.433 95.644 C 321.148 97.177,328.116 104.707,328.564 105.510 C 328.775 105.890,329.635 106.861,330.474 107.669 C 331.313 108.476,332.003 109.286,332.008 109.469 C 332.012 109.651,332.642 110.518,333.408 111.396 C 334.173 112.273,334.800 113.178,334.800 113.407 C 334.800 113.636,335.160 114.083,335.600 114.400 C 336.040 114.717,336.400 115.142,336.400 115.345 C 336.400 115.548,336.940 116.229,337.600 116.860 C 338.260 117.491,338.800 118.263,338.800 118.575 C 338.800 118.887,339.025 119.381,339.300 119.671 C 339.575 119.962,340.062 120.707,340.381 121.326 C 340.701 121.945,341.466 122.979,342.081 123.622 C 342.697 124.266,343.200 125.064,343.200 125.396 C 343.200 125.728,343.380 126.000,343.600 126.000 C 343.820 126.000,344.000 126.167,344.000 126.371 C 344.000 126.864,346.901 131.762,347.294 131.933 C 347.462 132.007,347.600 132.412,347.600 132.833 C 347.600 133.255,347.780 133.600,348.000 133.600 C 348.220 133.600,348.400 133.960,348.400 134.400 C 348.400 134.840,348.580 135.200,348.800 135.200 C 349.020 135.200,349.200 135.470,349.200 135.800 C 349.200 136.130,349.380 136.400,349.600 136.400 C 349.820 136.400,350.000 136.760,350.000 137.200 C 350.000 137.640,350.180 138.000,350.400 138.000 C 350.620 138.000,350.800 138.360,350.800 138.800 C 350.800 139.240,350.980 139.600,351.200 139.600 C 351.420 139.600,351.600 139.926,351.600 140.324 C 351.600 140.721,351.864 141.396,352.187 141.824 C 352.510 142.251,352.780 142.915,352.787 143.300 C 352.794 143.685,352.980 144.000,353.200 144.000 C 353.420 144.000,353.600 144.234,353.600 144.520 C 353.600 145.256,354.541 147.193,354.900 147.197 C 355.065 147.199,355.200 147.650,355.200 148.200 C 355.200 148.750,355.380 149.200,355.600 149.200 C 355.820 149.200,356.000 149.560,356.000 150.000 C 356.000 150.440,356.180 150.800,356.400 150.800 C 356.620 150.800,356.802 151.025,356.805 151.300 C 356.815 152.239,361.518 157.600,362.331 157.600 C 362.589 157.600,362.800 157.750,362.800 157.932 C 362.800 158.115,363.295 158.520,363.900 158.832 C 364.505 159.144,365.090 159.499,365.200 159.622 C 365.907 160.409,369.796 161.736,371.900 161.907 C 373.275 162.018,374.400 162.265,374.400 162.455 C 374.400 162.645,375.480 162.800,376.800 162.800 C 378.120 162.800,379.200 162.644,379.200 162.454 C 379.200 162.263,380.480 162.016,382.045 161.904 C 383.610 161.792,385.005 161.525,385.145 161.312 C 385.285 161.098,385.882 160.805,386.472 160.661 C 387.062 160.517,387.782 160.174,388.072 159.899 C 388.362 159.625,389.140 159.131,389.800 158.802 C 391.792 157.808,396.781 152.596,397.056 151.222 C 397.190 150.550,397.457 150.000,397.650 150.000 C 397.843 150.000,398.000 149.730,398.000 149.400 C 398.000 149.070,398.180 148.800,398.400 148.800 C 398.620 148.800,398.800 148.476,398.800 148.080 C 398.800 147.684,399.025 147.135,399.300 146.860 C 399.663 146.498,399.800 144.395,399.800 139.201 C 399.800 134.007,399.663 131.904,399.300 131.541 C 399.025 131.265,398.800 130.626,398.800 130.120 C 398.800 129.614,398.620 129.200,398.400 129.200 C 398.180 129.200,398.000 128.840,398.000 128.400 C 398.000 127.960,397.834 127.600,397.632 127.600 C 397.429 127.600,397.136 127.020,396.980 126.310 C 396.649 124.800,394.368 119.861,393.912 119.667 C 393.741 119.593,393.600 119.278,393.600 118.967 C 393.600 118.655,393.420 118.400,393.200 118.400 C 392.980 118.400,392.800 117.950,392.800 117.400 C 392.800 116.850,392.620 116.400,392.400 116.400 C 392.180 116.400,392.000 116.040,392.000 115.600 C 392.000 115.160,391.820 114.800,391.600 114.800 C 391.380 114.800,391.200 114.530,391.200 114.200 C 391.200 113.870,391.020 113.600,390.800 113.600 C 390.580 113.600,390.400 113.251,390.400 112.824 C 390.400 112.397,390.232 111.943,390.026 111.816 C 389.820 111.689,389.151 110.553,388.540 109.292 C 387.929 108.032,387.288 106.940,387.115 106.867 C 386.942 106.793,386.800 106.478,386.800 106.167 C 386.800 105.855,386.620 105.600,386.400 105.600 C 386.180 105.600,386.000 105.370,386.000 105.088 C 386.000 104.807,385.640 104.317,385.200 104.000 C 384.760 103.683,384.400 103.164,384.400 102.847 C 384.400 102.084,382.459 98.772,381.532 97.953 C 381.130 97.597,380.800 97.012,380.800 96.653 C 380.800 96.294,380.620 96.000,380.400 96.000 C 380.180 96.000,380.000 95.775,379.999 95.500 C 379.999 95.225,379.458 94.370,378.797 93.600 C 378.137 92.830,377.495 91.885,377.371 91.500 C 377.247 91.115,376.978 90.800,376.773 90.800 C 376.568 90.800,376.400 90.575,376.400 90.300 C 376.399 89.820,375.531 88.661,373.397 86.293 C 372.849 85.684,372.400 85.001,372.400 84.775 C 372.400 84.549,371.995 83.944,371.500 83.432 C 371.005 82.920,370.240 81.994,369.800 81.375 C 369.360 80.757,368.415 79.660,367.700 78.938 C 366.985 78.217,366.400 77.533,366.400 77.418 C 366.400 77.097,365.185 75.663,363.197 73.637 C 362.205 72.627,360.993 71.236,360.503 70.546 C 359.340 68.911,347.435 56.954,345.423 55.400 C 344.568 54.740,343.119 53.461,342.203 52.559 C 341.287 51.656,340.253 50.756,339.904 50.559 C 339.556 50.361,338.542 49.525,337.653 48.700 C 336.763 47.875,335.833 47.200,335.586 47.200 C 335.339 47.200,334.476 46.524,333.669 45.698 C 332.861 44.873,331.120 43.478,329.800 42.598 C 328.480 41.719,327.130 40.729,326.800 40.397 C 326.470 40.066,325.705 39.540,325.100 39.230 C 324.495 38.919,324.000 38.515,324.000 38.332 C 324.000 38.150,323.812 38.000,323.583 38.000 C 323.354 38.000,322.806 37.664,322.365 37.253 C 321.924 36.842,320.901 36.167,320.092 35.753 C 319.284 35.339,318.268 34.685,317.835 34.300 C 317.403 33.915,316.853 33.600,316.613 33.600 C 316.373 33.600,315.917 33.240,315.600 32.800 C 315.283 32.360,314.703 32.000,314.312 32.000 C 313.920 32.000,313.600 31.820,313.600 31.600 C 313.600 31.380,313.423 31.200,313.208 31.200 C 312.992 31.200,311.831 30.570,310.627 29.800 C 309.423 29.030,308.250 28.400,308.019 28.400 C 307.789 28.400,307.600 28.220,307.600 28.000 C 307.600 27.780,307.274 27.600,306.875 27.600 C 306.477 27.600,305.764 27.240,305.292 26.800 C 304.820 26.360,304.156 26.000,303.817 26.000 C 303.478 26.000,303.200 25.820,303.200 25.600 C 303.200 25.380,302.855 25.200,302.433 25.200 C 302.012 25.200,301.607 25.046,301.533 24.857 C 301.373 24.444,290.752 19.200,290.075 19.200 C 289.814 19.200,289.600 19.020,289.600 18.800 C 289.600 18.580,289.240 18.400,288.800 18.400 C 288.360 18.400,288.000 18.220,288.000 18.000 C 288.000 17.780,287.764 17.600,287.475 17.600 C 287.186 17.600,286.195 17.235,285.273 16.790 C 284.350 16.344,283.011 15.864,282.298 15.723 C 281.584 15.582,280.410 15.136,279.688 14.733 C 278.966 14.330,278.021 14.000,277.588 14.000 C 277.155 14.000,276.800 13.820,276.800 13.600 C 276.800 13.380,276.440 13.200,276.000 13.200 C 275.560 13.200,275.200 13.020,275.200 12.800 C 275.200 12.580,274.838 12.400,274.395 12.400 C 273.952 12.400,273.277 12.238,272.895 12.039 C 272.513 11.840,271.390 11.448,270.400 11.167 C 269.410 10.886,268.402 10.509,268.160 10.328 C 267.917 10.148,266.882 9.886,265.860 9.746 C 264.837 9.606,264.000 9.336,264.000 9.146 C 264.000 8.956,263.460 8.800,262.800 8.800 C 262.140 8.800,261.600 8.620,261.600 8.400 C 261.600 8.180,260.981 8.000,260.224 8.000 C 259.467 8.000,258.736 7.820,258.600 7.600 C 258.464 7.380,257.733 7.200,256.976 7.200 C 256.219 7.200,255.600 7.020,255.600 6.800 C 255.600 6.580,254.970 6.400,254.200 6.400 C 253.430 6.400,252.800 6.220,252.800 6.000 C 252.800 5.780,252.080 5.600,251.200 5.600 C 250.320 5.600,249.600 5.420,249.600 5.200 C 249.600 4.980,249.058 4.800,248.395 4.800 C 247.732 4.800,246.877 4.631,246.495 4.424 C 245.644 3.962,237.862 2.800,235.625 2.800 C 234.731 2.800,234.000 2.620,234.000 2.400 C 234.000 2.178,232.933 2.000,231.600 2.000 C 230.267 2.000,229.200 1.822,229.200 1.600 C 229.200 1.376,228.093 1.200,226.680 1.200 C 225.294 1.200,223.951 0.991,223.695 0.735 C 223.228 0.268,189.708 -0.093,180.700 0.271 " stroke="none" fill="#f49c1c" fill-rule="evenodd"></path><path id="path2" d="" stroke="none" fill="#4084b0" fill-rule="evenodd"></path><path id="path3" d="" stroke="none" fill="#4084b0" fill-rule="evenodd"></path><path id="path4" d="" stroke="none" fill="#4084b0" fill-rule="evenodd"></path></g></svg>